<?xml version="1.0" encoding="UTF-8" standalone="no"?>
<!-- Created with Inkscape (http://www.inkscape.org/) -->

<svg
   xmlns:dc="http://purl.org/dc/elements/1.1/"
   xmlns:cc="http://creativecommons.org/ns#"
   xmlns:rdf="http://www.w3.org/1999/02/22-rdf-syntax-ns#"
   xmlns:svg="http://www.w3.org/2000/svg"
   xmlns="http://www.w3.org/2000/svg"
   xmlns:sodipodi="http://sodipodi.sourceforge.net/DTD/sodipodi-0.dtd"
   xmlns:inkscape="http://www.inkscape.org/namespaces/inkscape"
   width="70"
   height="70"
   id="svg2816"
   version="1.1"
   inkscape:version="0.47 r22583"
   sodipodi:docname="LUT.svg">
  <defs
     id="defs2818">
    <inkscape:perspective
       sodipodi:type="inkscape:persp3d"
       inkscape:vp_x="0 : 35 : 1"
       inkscape:vp_y="0 : 1000 : 0"
       inkscape:vp_z="70 : 35 : 1"
       inkscape:persp3d-origin="35 : 23.333333 : 1"
       id="perspective28" />
  </defs>
  <sodipodi:namedview
     id="base"
     pagecolor="#ffffff"
     bordercolor="#666666"
     borderopacity="1.0"
     inkscape:pageopacity="0.0"
     inkscape:pageshadow="2"
     inkscape:zoom="16.659436"
     inkscape:cx="33.809677"
     inkscape:cy="35.458721"
     inkscape:current-layer="svg2816"
     showgrid="true"
     inkscape:grid-bbox="true"
     inkscape:document-units="px"
     inkscape:window-width="1920"
     inkscape:window-height="1147"
     inkscape:window-x="1920"
     inkscape:window-y="0"
     inkscape:window-maximized="1">
    <inkscape:grid
       type="xygrid"
       id="grid3706"
       empspacing="5"
       visible="true"
       enabled="true"
       snapvisiblegridlinesonly="true" />
  </sodipodi:namedview>
  <metadata
     id="metadata2821">
    <rdf:RDF>
      <cc:Work
         rdf:about="">
        <dc:format>image/svg+xml</dc:format>
        <dc:type
           rdf:resource="http://purl.org/dc/dcmitype/StillImage" />
        <dc:title />
      </cc:Work>
    </rdf:RDF>
  </metadata>
  <g
     id="layer1"
     inkscape:label="Layer 1"
     inkscape:groupmode="layer"
     transform="translate(0,38)">
    <path
       style="color:#000000;fill:#329ca0;fill-opacity:0.20164609;fill-rule:evenodd;stroke:#000000;stroke-width:1;stroke-linecap:square;stroke-linejoin:miter;stroke-miterlimit:4;stroke-opacity:1;stroke-dasharray:none;stroke-dashoffset:0;marker:none;visibility:visible;display:inline;overflow:visible;enable-background:accumulate"
       d="m 30.058824,-15 0,12.0000003 L 30.058824,9 39,9 C 44.720575,8.036599 49.058824,2.5133618 49.058824,-2.9999997 49.058824,-8.5133607 44.720575,-14.036599 39,-15 l -8.941176,0 z"
       id="symbol"
       sodipodi:nodetypes="ccccscc"
       inkscape:label="" />
    <path
       style="fill:none;stroke:#000000;stroke-width:0.99999994000000003;stroke-linecap:square;stroke-linejoin:miter;stroke-miterlimit:4;stroke-opacity:1;stroke-dasharray:none;color:#000000;stroke-dashoffset:0;marker:none;visibility:visible;display:inline;overflow:visible;enable-background:accumulate"
       d="M 30,-3 20,-3"
       id="INPC"
       sodipodi:nodetypes="cc"
       inkscape:label="" />
    <path
       sodipodi:nodetypes="cccc"
       id="INPD"
       d="m 30,2 -8,0 0,8 -2,0"
       style="color:#000000;fill:none;stroke:#000000;stroke-width:0.99999994;stroke-linecap:square;stroke-linejoin:miter;stroke-miterlimit:4;stroke-opacity:1;stroke-dasharray:none;stroke-dashoffset:0;marker:none;visibility:visible;display:inline;overflow:visible;enable-background:accumulate"
       inkscape:label="" />
    <path
       style="color:#000000;fill:none;stroke:#000000;stroke-width:0.99999994;stroke-linecap:square;stroke-linejoin:miter;stroke-miterlimit:4;stroke-opacity:1;stroke-dasharray:none;stroke-dashoffset:0;marker:none;visibility:visible;display:inline;overflow:visible;enable-background:accumulate"
       d="m 30,7 -5,0 0,16 -5,0"
       id="INPE"
       sodipodi:nodetypes="cccc"
       inkscape:label="" />
    <path
       sodipodi:nodetypes="cccc"
       id="INPB"
       d="m 30,-8 -8,0 0,-8 -2,0"
       style="color:#000000;fill:none;stroke:#000000;stroke-width:0.99999994;stroke-linecap:square;stroke-linejoin:miter;stroke-miterlimit:4;stroke-opacity:1;stroke-dasharray:none;stroke-dashoffset:0;marker:none;visibility:visible;display:inline;overflow:visible;enable-background:accumulate"
       inkscape:label="" />
    <path
       style="color:#000000;fill:none;stroke:#000000;stroke-width:0.99999994;stroke-linecap:square;stroke-linejoin:miter;stroke-miterlimit:4;stroke-opacity:1;stroke-dasharray:none;stroke-dashoffset:0;marker:none;visibility:visible;display:inline;overflow:visible;enable-background:accumulate"
       d="m 30,-13 -5,0 0,-16 -5,0"
       id="INPA"
       sodipodi:nodetypes="cccc"
       inkscape:label="" />
    <path
       style="color:#000000;fill:none;stroke:#000000;stroke-width:0.99999988;stroke-linecap:square;stroke-linejoin:miter;stroke-miterlimit:4;stroke-opacity:1;stroke-dasharray:none;stroke-dashoffset:0;marker:none;visibility:visible;display:inline;overflow:visible;enable-background:accumulate"
       d="m 52,-3 -2,0"
       id="OUT"
       sodipodi:nodetypes="cc"
       inkscape:label="" />
    <path
       sodipodi:type="arc"
       style="color:#000000;fill:#ffffff;fill-opacity:1;fill-rule:evenodd;stroke:#000000;stroke-width:1.66666639;stroke-linecap:square;stroke-linejoin:miter;stroke-miterlimit:4;stroke-opacity:1;stroke-dasharray:none;stroke-dashoffset:0;marker:none;visibility:visible;display:inline;overflow:visible;enable-background:accumulate"
       id="notINPA"
       sodipodi:cx="38.5"
       sodipodi:cy="19.5"
       sodipodi:rx="2.5"
       sodipodi:ry="2.5"
       d="M 41,19.5 C 41,20.880712 39.880712,22 38.5,22 37.119288,22 36,20.880712 36,19.5 36,18.119288 37.119288,17 38.5,17 c 1.380712,0 2.5,1.119288 2.5,2.5 z"
       transform="matrix(0.60000002,0,0,0.60000003,5.3999992,-24.700001)"
       inkscape:label="" />
    <path
       sodipodi:type="arc"
       style="color:#000000;fill:#ffffff;fill-opacity:1;fill-rule:evenodd;stroke:#000000;stroke-width:1.66666639;stroke-linecap:square;stroke-linejoin:miter;stroke-miterlimit:4;stroke-opacity:1;stroke-dasharray:none;stroke-dashoffset:0;marker:none;visibility:visible;display:inline;overflow:visible;enable-background:accumulate"
       id="notINPB"
       sodipodi:cx="38.5"
       sodipodi:cy="19.5"
       sodipodi:rx="2.5"
       sodipodi:ry="2.5"
       d="M 41,19.5 C 41,20.880712 39.880712,22 38.5,22 37.119288,22 36,20.880712 36,19.5 36,18.119288 37.119288,17 38.5,17 c 1.380712,0 2.5,1.119288 2.5,2.5 z"
       transform="matrix(0.60000002,0,0,0.60000003,5.3999992,-19.700001)"
       inkscape:label="" />
    <path
       sodipodi:type="arc"
       style="color:#000000;fill:#ffffff;fill-opacity:1;fill-rule:evenodd;stroke:#000000;stroke-width:1.66666639;stroke-linecap:square;stroke-linejoin:miter;stroke-miterlimit:4;stroke-opacity:1;stroke-dasharray:none;stroke-dashoffset:0;marker:none;visibility:visible;display:inline;overflow:visible;enable-background:accumulate"
       id="notINPC"
       sodipodi:cx="38.5"
       sodipodi:cy="19.5"
       sodipodi:rx="2.5"
       sodipodi:ry="2.5"
       d="M 41,19.5 C 41,20.880712 39.880712,22 38.5,22 37.119288,22 36,20.880712 36,19.5 36,18.119288 37.119288,17 38.5,17 c 1.380712,0 2.5,1.119288 2.5,2.5 z"
       transform="matrix(0.60000002,0,0,0.60000003,5.3999992,-14.700001)"
       inkscape:label="" />
    <path
       sodipodi:type="arc"
       style="color:#000000;fill:#ffffff;fill-opacity:1;fill-rule:evenodd;stroke:#000000;stroke-width:1.66666639;stroke-linecap:square;stroke-linejoin:miter;stroke-miterlimit:4;stroke-opacity:1;stroke-dasharray:none;stroke-dashoffset:0;marker:none;visibility:visible;display:inline;overflow:visible;enable-background:accumulate"
       id="notINPE"
       sodipodi:cx="38.5"
       sodipodi:cy="19.5"
       sodipodi:rx="2.5"
       sodipodi:ry="2.5"
       d="M 41,19.5 C 41,20.880712 39.880712,22 38.5,22 37.119288,22 36,20.880712 36,19.5 36,18.119288 37.119288,17 38.5,17 c 1.380712,0 2.5,1.119288 2.5,2.5 z"
       transform="matrix(0.60000002,0,0,0.60000003,5.3999992,-4.7000006)"
       inkscape:label="" />
    <path
       sodipodi:type="arc"
       style="color:#000000;fill:#ffffff;fill-opacity:1;fill-rule:evenodd;stroke:#000000;stroke-width:1.66666639;stroke-linecap:square;stroke-linejoin:miter;stroke-miterlimit:4;stroke-opacity:1;stroke-dasharray:none;stroke-dashoffset:0;marker:none;visibility:visible;display:inline;overflow:visible;enable-background:accumulate"
       id="notINPD"
       sodipodi:cx="38.5"
       sodipodi:cy="19.5"
       sodipodi:rx="2.5"
       sodipodi:ry="2.5"
       d="M 41,19.5 C 41,20.880712 39.880712,22 38.5,22 37.119288,22 36,20.880712 36,19.5 36,18.119288 37.119288,17 38.5,17 c 1.380712,0 2.5,1.119288 2.5,2.5 z"
       transform="matrix(0.60000002,0,0,0.60000003,5.3999992,-9.7000006)"
       inkscape:label="" />
  </g>
</svg>
